<svg width="35" height="35" viewBox="0 0 35 35" fill="none" xmlns="http://www.w3.org/2000/svg">
<path d="M33.0571 16.5278C33.0571 15.9908 33.492 15.5556 34.0285 15.5556C34.5651 15.5556 35 15.9908 35 16.5278V30.1389C35 32.8236 32.8253 35 30.1426 35H4.85737C2.17472 35 0 32.8236 0 30.1389V4.86111C0 2.17639 2.17472 0 4.85737 0H18.485C19.0215 0 19.4564 0.435279 19.4564 0.972222C19.4564 1.50917 19.0215 1.94444 18.485 1.94444H4.85737C3.24778 1.94444 1.94295 3.25028 1.94295 4.86111V30.1389C1.94295 31.7497 3.24778 33.0556 4.85737 33.0556H30.1426C31.7522 33.0556 33.0571 31.7497 33.0571 30.1389V16.5278ZM30.8296 0.284757L34.7155 4.17365C35.0948 4.55332 35.0948 5.1689 34.7155 5.54857L19.1719 21.1041C18.9897 21.2865 18.7426 21.3889 18.485 21.3889H14.5991C14.0625 21.3889 13.6276 20.9536 13.6276 20.4167V16.5278C13.6276 16.2699 13.7299 16.0226 13.9121 15.8403L29.4557 0.284757C29.8351 -0.0949189 30.4502 -0.0949189 30.8296 0.284757ZM30.1426 2.34715L15.5705 16.9305V19.4444H18.0826L32.6547 4.86111L30.1426 2.34715Z" fill="#236898"/>
</svg>
