<svg width="9" height="6" viewBox="0 0 9 6" fill="none" xmlns="http://www.w3.org/2000/svg">
<path d="M4.50064 3.57221L7.71549 0.229916C7.8566 0.0835513 8.04799 0.00132505 8.24755 0.00132506C8.44711 0.00132508 8.6385 0.0835514 8.77961 0.229916C8.92072 0.37628 9 0.574792 9 0.781782C9 0.884273 8.98054 0.985761 8.94272 1.08045C8.90491 1.17514 8.84948 1.26118 8.77961 1.33365L5.0327 5.22003C4.96304 5.29289 4.88015 5.35071 4.78883 5.39017C4.69752 5.42963 4.59957 5.44995 4.50064 5.44995C4.40171 5.44995 4.30376 5.42963 4.21244 5.39017C4.12112 5.35071 4.03824 5.29289 3.96858 5.22003L0.221667 1.33365C0.151429 1.26139 0.0956768 1.17542 0.0576319 1.0807C0.019587 0.985986 3.99134e-07 0.884391 4.08104e-07 0.781781C4.17075e-07 0.679172 0.019587 0.577577 0.0576319 0.482859C0.0956769 0.38814 0.151429 0.302173 0.221667 0.229915C0.291332 0.157062 0.374214 0.0992372 0.465533 0.059776C0.556852 0.0203149 0.6548 -2.16007e-06 0.753727 -2.15142e-06C0.852655 -2.14278e-06 0.950604 0.0203149 1.04192 0.0597761C1.13324 0.0992372 1.21612 0.157062 1.28579 0.229915L4.50064 3.57221Z" fill="#4D4D4F"/>
</svg>
