<svg width="9" height="6" viewBox="0 0 9 6" fill="none" xmlns="http://www.w3.org/2000/svg">
<path d="M4.49936 1.87774L1.28451 5.22004C1.1434 5.3664 0.952011 5.44863 0.752449 5.44863C0.552887 5.44863 0.361499 5.3664 0.220387 5.22004C0.0792757 5.07367 0 4.87516 0 4.66817C0 4.56568 0.0194629 4.46419 0.057277 4.3695C0.0950911 4.27481 0.150516 4.18877 0.220387 4.1163L3.9673 0.229917C4.03696 0.157064 4.11985 0.0992393 4.21117 0.059778C4.30248 0.0203167 4.40043 0 4.49936 0C4.59829 0 4.69624 0.0203167 4.78756 0.059778C4.87888 0.0992393 4.96176 0.157064 5.03142 0.229917L8.77833 4.1163C8.84857 4.18856 8.90432 4.27453 8.94237 4.36925C8.98041 4.46396 9 4.56556 9 4.66817C9 4.77078 8.98041 4.87237 8.94237 4.96709C8.90432 5.06181 8.84857 5.14778 8.77833 5.22004C8.70867 5.29289 8.62579 5.35071 8.53447 5.39017C8.44315 5.42964 8.3452 5.44995 8.24627 5.44995C8.14735 5.44995 8.0494 5.42964 7.95808 5.39017C7.86676 5.35071 7.78388 5.29289 7.71421 5.22004L4.49936 1.87774Z" fill="#4D4D4F"/>
</svg>
