<svg width="186" height="63" viewBox="0 0 186 63" fill="none" xmlns="http://www.w3.org/2000/svg">
<path d="M39.5808 60.7055C38.7744 57.8558 38.0352 55.6823 37.3632 54.185C36.736 52.6877 35.8848 51.5527 34.8096 50.7799C33.7792 50.0071 32.368 49.6207 30.576 49.6207H0.7392L0 47.3747L1.4784 47.0125C3.0464 46.4812 4.0768 45.8533 4.5696 45.1288C5.0624 44.356 5.3088 42.9553 5.3088 40.9267V11.2222C5.3088 9.19358 5.04 7.79288 4.5024 7.02008C4.0096 6.19898 3.0016 5.57108 1.4784 5.13638L0 4.77413L0.7392 2.52818H14.112L14.9184 3.54248L14.112 4.77413C13.0816 6.17483 12.3648 7.69628 11.9616 9.33848C11.5584 10.9324 11.3568 13.0334 11.3568 15.6416V40.9267C11.3568 42.3274 11.4464 43.39 11.6256 44.1145C11.8496 44.7907 12.2304 45.2495 12.768 45.491C13.3056 45.7325 14.1344 45.8533 15.2544 45.8533H25.536C26.656 45.8533 27.4848 45.7325 28.0224 45.491C28.56 45.2495 28.9184 44.7907 29.0976 44.1145C29.3216 43.39 29.4336 42.3274 29.4336 40.9267V11.2222C29.4336 9.24188 29.1648 7.84118 28.6272 7.02008C28.0896 6.19898 27.0592 5.57108 25.536 5.13638L24.1248 4.77413L24.7968 2.52818H38.1696L38.976 3.54248L38.1696 4.77413C37.184 6.17483 36.4896 7.69628 36.0864 9.33848C35.6832 10.9324 35.4816 13.0334 35.4816 15.6416V42.7379C35.4816 44.042 36.1312 45.0563 37.4304 45.7808C38.7296 46.5053 40.2752 46.8676 42.0672 46.8676V61.5025L39.984 62.2994L39.5808 60.7055Z" fill="url(#paint0_linear_26_1042)"/>
<path d="M59.1459 48.5339L59.9523 47.3747C60.9827 45.9257 61.6995 44.4043 62.1027 42.8104C62.5507 41.2165 62.7747 39.0913 62.7747 36.4348V15.6416C62.7747 13.0817 62.5507 11.0048 62.1027 9.41093C61.6995 7.76873 60.9827 6.22313 59.9523 4.77413L59.1459 3.54248L59.9523 2.52818H77.8947C79.7315 2.52818 81.1875 2.43158 82.2627 2.23838C83.3379 1.99688 84.1891 1.63463 84.8163 1.15163L85.8915 0.282227L86.8995 1.15163V12.8161L84.8163 13.613L84.4803 12.0191C84.1219 10.3769 83.6963 9.16943 83.2035 8.39663C82.7555 7.57553 82.1059 6.99593 81.2547 6.65783C80.4483 6.31973 79.3059 6.15068 77.8275 6.15068H72.5859C71.0179 6.15068 69.9875 6.48878 69.4947 7.16498C69.0019 7.84118 68.7555 9.19358 68.7555 11.2222V40.9267C68.7555 42.9553 69.0019 44.356 69.4947 45.1288C69.9875 45.8533 71.0179 46.4812 72.5859 47.0125L74.0643 47.3747L73.3251 49.6207H59.9523L59.1459 48.5339Z" fill="url(#paint1_linear_26_1042)"/>
<path d="M118.136 50.5625C115.672 50.5625 113.365 50.152 111.215 49.3309C109.109 48.5098 107.384 47.3023 106.04 45.7084C104.741 44.1145 104.092 42.1825 104.092 39.9124C104.092 37.8355 104.652 36.1691 105.772 34.9133C106.892 33.6575 108.37 33.0296 110.207 33.0296C110.655 33.0296 110.968 33.0779 111.148 33.1745C111.327 33.2228 111.416 33.416 111.416 33.7541C111.416 33.899 111.17 34.4786 110.677 35.4929C110.229 36.4589 110.005 37.7389 110.005 39.3328C110.005 41.6029 110.789 43.4141 112.357 44.7665C113.925 46.1189 115.784 46.7951 117.935 46.7951C120.309 46.7951 122.415 45.9499 124.252 44.2594C126.088 42.5689 127.522 40.2988 128.552 37.4491C129.583 34.5511 130.165 31.315 130.3 27.7408H111.349C111.349 26.968 111.461 26.2193 111.685 25.4948C111.909 24.722 112.268 24.1424 112.76 23.756H130.3C130.031 18.5879 128.776 14.2168 126.536 10.6426C124.341 7.06838 121.116 5.28128 116.86 5.28128C114.799 5.28128 112.984 5.88503 111.416 7.09253C109.848 8.30003 108.773 10.1837 108.191 12.7436L107.855 14.2651L105.772 13.4681V1.73123L106.78 0.934277L107.855 1.73123C108.437 2.26253 109.221 2.52818 110.207 2.52818C110.834 2.52818 111.752 2.40743 112.962 2.16593C114.933 1.77953 116.68 1.58633 118.204 1.58633C122.37 1.58633 125.887 2.67308 128.754 4.84658C131.621 6.97178 133.749 9.89393 135.138 13.613C136.527 17.2838 137.221 21.4618 137.221 26.1469C137.221 30.7354 136.504 34.8892 135.071 38.6083C133.682 42.2791 131.554 45.2012 128.687 47.3747C125.864 49.4999 122.348 50.5625 118.136 50.5625Z" fill="url(#paint2_linear_26_1042)"/>
<path d="M171.526 50.5625C167.315 50.5625 163.753 49.4999 160.841 47.3747C157.929 45.2012 155.734 42.2791 154.256 38.6083C152.822 34.8892 152.105 30.7354 152.105 26.1469C152.105 21.4618 152.822 17.2838 154.256 13.613C155.734 9.89393 157.929 6.97178 160.841 4.84658C163.798 2.67308 167.427 1.58633 171.728 1.58633C174.371 1.58633 176.723 1.99688 178.784 2.81798C180.844 3.63908 182.457 4.77413 183.622 6.22313C184.787 7.67213 185.369 9.33848 185.369 11.2222C185.369 13.444 184.764 15.2794 183.555 16.7284C182.345 18.1291 180.822 18.8294 178.985 18.8294C178.044 18.8294 177.574 18.5638 177.574 18.0325C177.574 17.9359 177.753 17.5978 178.112 17.0182C178.47 16.3903 178.784 15.6899 179.052 14.9171C179.321 14.096 179.456 13.1542 179.456 12.0916C179.456 10.063 178.739 8.42078 177.305 7.16498C175.916 5.86088 174.057 5.20883 171.728 5.20883C168.726 5.20883 166.262 6.22313 164.336 8.25173C162.454 10.2803 161.088 12.8885 160.236 16.0763C159.385 19.2158 158.96 22.5727 158.96 26.1469C158.96 29.7694 159.497 33.1021 160.572 36.145C161.648 39.1879 163.171 41.6029 165.142 43.39C167.158 45.1288 169.465 45.9982 172.064 45.9982C174.662 45.9982 176.924 45.491 178.851 44.4767C180.822 43.4141 182.39 41.9651 183.555 40.1297C183.689 39.9365 183.824 39.8399 183.958 39.8399C184.361 39.8399 184.787 40.0573 185.235 40.492C185.683 40.8784 185.907 41.2889 185.907 41.7236C185.907 41.8685 185.862 42.0376 185.772 42.2308C182.188 47.7853 177.44 50.5625 171.526 50.5625Z" fill="url(#paint3_linear_26_1042)"/>
<defs>
<linearGradient id="paint0_linear_26_1042" x1="-2.41918" y1="25.4707" x2="162.781" y2="25.4707" gradientUnits="userSpaceOnUse">
<stop stop-color="#75B7E7"/>
<stop offset="1" stop-color="#008BF0"/>
</linearGradient>
<linearGradient id="paint1_linear_26_1042" x1="-2.41918" y1="25.4707" x2="162.781" y2="25.4707" gradientUnits="userSpaceOnUse">
<stop stop-color="#75B7E7"/>
<stop offset="1" stop-color="#008BF0"/>
</linearGradient>
<linearGradient id="paint2_linear_26_1042" x1="-2.41918" y1="25.4707" x2="162.781" y2="25.4707" gradientUnits="userSpaceOnUse">
<stop stop-color="#75B7E7"/>
<stop offset="1" stop-color="#008BF0"/>
</linearGradient>
<linearGradient id="paint3_linear_26_1042" x1="-2.41918" y1="25.4707" x2="162.781" y2="25.4707" gradientUnits="userSpaceOnUse">
<stop stop-color="#75B7E7"/>
<stop offset="1" stop-color="#008BF0"/>
</linearGradient>
</defs>
</svg>
