<svg width="52" height="45" viewBox="0 0 52 45" fill="none" xmlns="http://www.w3.org/2000/svg">
<path d="M28.1824 32.5318C27.547 33.1603 27.547 34.1775 28.1824 34.8043C28.8179 35.4327 29.8464 35.4327 30.4802 34.8043L41.691 23.715C42.0291 23.3807 42.1737 22.9355 42.1508 22.4983C42.1737 22.0596 42.029 21.6161 41.691 21.2818L30.4802 10.1941C29.8464 9.56571 28.8162 9.56571 28.1824 10.1941C27.547 10.8225 27.547 11.8398 28.1824 12.4666L36.7022 20.8928H1.625C0.728 20.8929 0 21.6129 0 22.5C0 23.3871 0.728 24.1071 1.625 24.1071H36.7022L28.1824 32.5318ZM45.5 0H13C9.41039 0 6.5 2.8784 6.5 6.42857V12.8571H9.75V6.42857C9.75 4.65429 11.2044 3.21429 13 3.21429H45.5C47.2956 3.21429 48.75 4.65429 48.75 6.42857V38.5714C48.75 40.3457 47.2956 41.7857 45.5 41.7857H13C11.2044 41.7857 9.75 40.3473 9.75 38.5714V32.1429H6.5V38.5714C6.5 42.1216 9.41039 45 13 45H45.5C49.0896 45 52 42.1216 52 38.5714V6.42857C52 2.8784 49.0896 0 45.5 0Z" fill="#6CB5EA"/>
</svg>
